<?xml version="1.0" standalone="no"?>
<!DOCTYPE svg PUBLIC "-//W3C//DTD SVG 20010904//EN"
 "http://www.w3.org/TR/2001/REC-SVG-20010904/DTD/svg10.dtd">
<svg version="1.0" xmlns="http://www.w3.org/2000/svg"
 width="250.000000pt" height="200.000000pt" viewBox="0 0 250.000000 200.000000"
 preserveAspectRatio="xMidYMid meet">
<metadata>
Created by potrace 1.16, written by Peter Selinger 2001-2019
</metadata>
<g transform="translate(0.000000,200.000000) scale(0.032895,-0.033727)"
fill="#000000" stroke="none">
<path d="M510 5886 c0 -56 8 -76 29 -76 14 0 14 -2 1 -10 -10 -6 -15 -25 -14
-60 0 -27 -3 -50 -8 -50 -14 0 -9 -88 7 -104 8 -8 15 -24 15 -35 0 -14 -5 -19
-15 -15 -27 11 -16 -14 15 -33 38 -22 39 -36 0 -28 l-30 7 2 -72 c0 -42 6 -73
12 -76 13 -4 432 -54 706 -84 246 -27 300 -40 260 -65 -13 -8 -14 -345 -1
-345 14 0 26 63 12 68 -22 7 -12 34 12 30 18 -3 23 -11 28 -53 l5 -50 8 53 c6
35 13 52 23 52 12 0 14 -15 9 -87 -9 -119 -15 -155 -27 -148 -5 4 -9 28 -9 56
0 60 -18 66 -22 7 -4 -59 -28 -63 -28 -4 0 24 -4 47 -10 51 -6 3 -9 -141 -9
-392 1 -219 4 -387 9 -373 4 14 8 37 9 53 1 17 7 27 16 27 17 0 18 -10 6 -62
-8 -34 -7 -36 20 -42 31 -6 41 -28 12 -25 -10 1 -30 1 -45 0 l-28 -1 0 -411 0
-411 196 6 c152 6 202 11 220 23 15 9 24 11 24 4 0 -7 23 -11 60 -11 52 0 60
2 60 19 0 16 4 18 28 12 15 -5 26 -13 25 -18 -2 -11 99 -9 117 2 5 3 14 4 19
0 5 -3 12 -1 16 5 3 5 11 10 16 10 6 0 7 -5 4 -11 -5 -7 22 -9 86 -7 78 2 93
5 97 20 4 17 18 22 55 19 9 -1 17 4 17 12 0 8 8 17 18 21 9 3 23 9 31 12 10 5
11 1 6 -15 -12 -39 1 -57 40 -53 21 3 35 10 35 18 0 8 5 14 10 14 6 0 10 -7 8
-16 -2 -10 3 -19 10 -21 6 -3 12 3 12 12 0 14 2 14 24 -2 l24 -18 -30 -6 c-17
-4 -76 -8 -132 -9 -55 -1 -128 -3 -161 -5 -33 -2 -136 -7 -230 -10 -254 -8
-335 -15 -335 -28 0 -14 -9 -15 -150 -23 -83 -4 -113 -2 -148 11 l-43 17 -29
-31 c-34 -35 -34 -36 -20 -200 10 -124 16 -1129 6 -1138 -3 -4 -45 -1 -93 5
-49 6 -91 7 -95 3 -15 -13 -87 0 -91 17 -4 15 -5 15 -6 0 0 -10 -12 -20 -27
-24 -30 -8 -192 1 -202 10 -3 4 -7 28 -9 54 -1 26 -2 50 -2 55 -1 4 -28 7 -61
7 l-60 0 -1 53 c-1 109 -10 212 -20 222 -14 14 -11 22 12 28 13 3 18 10 14 17
-5 8 -24 9 -57 5 -45 -6 -50 -5 -46 11 2 14 16 21 56 26 29 5 62 13 72 18 10
6 35 10 54 10 l36 0 0 58 c0 31 3 551 7 1154 l6 1097 -34 5 c-92 14 -419 30
-422 21 -5 -14 24 -34 49 -35 26 0 39 -27 23 -46 -9 -11 -8 -14 5 -14 9 0 25
-9 36 -20 11 -11 22 -15 25 -9 12 18 22 0 18 -33 -3 -25 -2 -29 6 -18 6 8 11
25 11 37 0 27 17 38 35 23 11 -9 16 -4 26 29 15 49 32 55 24 7 -5 -25 -3 -35
9 -39 24 -9 44 2 48 26 2 11 9 22 16 25 9 3 11 -3 7 -21 -5 -19 -2 -25 14 -30
28 -7 27 -29 -1 -25 -18 2 -24 -2 -26 -24 -3 -23 1 -27 25 -30 l28 -3 -23 -13
c-30 -17 -52 -1 -52 39 0 33 -9 40 -38 32 -16 -4 -22 -13 -22 -35 0 -25 3 -28
20 -23 24 8 26 -7 4 -26 -14 -11 -18 -10 -30 6 -8 10 -14 32 -14 48 0 19 -4
27 -12 24 -7 -2 -12 -18 -12 -35 2 -28 -1 -30 -32 -30 -24 0 -35 5 -39 19 -6
18 -7 18 -33 1 -36 -23 -62 -45 -62 -53 0 -4 62 -8 138 -11 83 -3 146 -9 161
-17 34 -19 13 -32 -34 -21 -21 5 -91 12 -155 15 -143 8 -180 18 -175 47 3 12
0 27 -6 35 -6 7 -9 22 -6 33 6 22 -3 26 -21 8 -9 -9 -14 -6 -21 13 -5 13 -10
18 -10 11 -1 -7 -6 -10 -12 -7 -17 11 -53 -3 -87 -33 -34 -31 -94 -41 -118
-21 -10 8 -18 7 -29 -4 -13 -14 -19 -14 -42 -2 -19 10 -29 11 -34 4 -4 -8 -8
-7 -12 2 -5 12 -7 12 -15 0 -6 -8 -18 -11 -31 -6 -15 4 -21 2 -21 -9 0 -8 4
-17 10 -21 6 -4 6 -15 0 -31 -16 -42 -13 -141 5 -148 11 -4 15 -22 15 -71 0
-65 -15 -90 -23 -37 -2 15 -5 -139 -5 -343 -1 -217 2 -376 8 -385 7 -12 12
-12 22 -2 16 16 58 16 58 0 0 -31 -13 -54 -36 -65 -14 -6 -26 -7 -30 -2 -17
29 -24 -4 -24 -117 l0 -127 68 7 c84 7 459 9 489 3 42 -10 63 3 63 39 0 18 4
36 10 39 6 3 10 53 10 113 0 59 4 113 9 121 15 23 29 4 36 -49 8 -61 20 -66
20 -8 0 46 18 62 30 26 l8 -23 4 23 c3 16 9 22 20 18 8 -3 26 -6 39 -6 19 0
24 -5 24 -25 0 -30 -26 -85 -40 -85 -6 0 -9 17 -9 38 1 37 1 37 9 7 7 -30 9
-28 24 18 9 27 -3 40 -21 25 -9 -7 -19 -12 -22 -10 -3 1 -8 -14 -11 -35 -4
-33 -9 -38 -32 -41 -20 -2 -28 -9 -28 -22 0 -10 4 -21 8 -24 4 -3 6 -22 4 -42
-4 -34 -6 -36 -17 -20 -8 10 -12 31 -10 47 3 24 1 30 -12 27 -14 -3 -17 -16
-18 -74 l-2 -71 39 -16 c21 -10 44 -17 52 -17 31 0 43 -11 38 -36 -2 -14 0
-24 7 -24 7 0 11 -19 10 -47 l-1 -48 -7 37 c-12 61 -23 68 -115 68 -44 0 -142
-4 -216 -9 -74 -5 -208 -13 -298 -16 l-162 -7 0 -1494 0 -1494 396 0 397 0 -7
46 c-4 33 -3 43 6 38 8 -5 9 -2 5 9 -8 21 1 26 74 38 82 13 197 53 291 100 43
21 84 39 93 39 12 0 15 -18 15 -112 0 -164 -3 -158 89 -158 l76 0 -3 200 -3
200 28 24 c25 21 26 26 15 50 -6 15 -23 31 -37 36 -44 17 -256 48 -405 59
-239 19 -249 21 -253 39 -8 32 -8 577 0 588 12 16 41 24 103 30 30 2 71 9 90
14 46 12 317 39 399 39 34 1 81 6 104 12 44 12 52 13 241 29 71 6 133 13 136
15 4 2 66 5 139 6 72 1 134 6 137 11 3 5 22 6 42 3 28 -4 32 -3 17 4 -17 8
-14 10 17 10 20 1 38 -3 40 -7 4 -11 232 16 236 27 1 5 20 5 41 1 21 -4 47 -3
58 1 11 4 35 6 54 5 18 -1 45 4 60 11 15 7 54 14 88 14 34 1 61 5 61 9 0 12
58 18 69 7 19 -19 40 0 36 32 -5 36 4 40 95 41 116 3 117 2 124 -25 8 -31 26
-23 26 11 0 13 1 24 3 24 90 17 225 36 233 33 7 -2 15 -19 19 -36 10 -49 17
-900 7 -915 -5 -7 -35 -15 -68 -17 -506 -43 -720 -69 -790 -95 -26 -10 -45
-46 -36 -68 2 -8 16 -18 30 -23 l25 -10 -6 -194 -6 -195 79 0 80 0 0 123 c0
167 7 172 147 113 145 -61 287 -99 496 -131 l37 -6 0 -49 0 -50 70 0 70 0 0
33 c0 56 5 59 123 51 l107 -7 0 -38 0 -39 75 0 c71 0 75 1 75 23 0 57 9 67 61
67 l49 0 0 -45 0 -45 80 0 80 0 0 54 c0 33 5 58 13 63 28 18 152 52 160 44 5
-5 8 -43 5 -85 l-3 -76 75 0 75 0 0 184 c0 101 3 187 7 191 4 4 58 -2 120 -13
62 -12 138 -24 168 -27 30 -3 75 -8 98 -11 l44 -5 -6 -57 c-3 -31 -9 -103 -12
-159 l-6 -103 144 0 144 0 12 108 c7 59 12 126 12 149 l0 41 68 0 c37 0 101 3
144 7 45 4 83 3 94 -3 12 -7 28 -5 52 5 l35 15 -6 -161 -6 -161 150 0 149 0
-2 168 c-1 92 2 209 7 261 l8 93 37 -5 c20 -2 44 0 54 5 11 6 28 6 49 -1 18
-5 48 -12 67 -14 l35 -3 -2 -65 c-1 -35 -4 -77 -6 -94 -3 -16 -6 -52 -7 -80
-1 -39 -3 -46 -11 -30 -6 13 -8 -13 -6 -80 1 -55 1 -92 -1 -83 -2 10 -7 18
-10 18 -4 0 -8 51 -9 113 -2 61 -7 126 -12 142 -7 22 -9 -2 -6 -85 2 -63 4
-148 5 -188 l0 -73 133 3 132 3 7 230 c5 127 10 239 13 251 4 19 14 22 88 27
46 3 95 11 110 18 15 7 30 10 33 7 7 -8 5 -485 -2 -515 l-6 -23 471 0 471 0 0
504 0 504 -45 -6 c-43 -4 -45 -3 -45 20 0 32 29 58 63 58 l27 0 0 525 0 525
-28 0 c-15 0 -34 5 -42 11 -11 8 -4 9 28 6 l42 -5 0 1125 0 1124 -177 -7 c-98
-3 -183 -10 -189 -15 -16 -13 -28 -257 -14 -274 17 -20 11 -207 -7 -220 -12
-9 -14 -67 -15 -339 l-1 -328 -341 6 c-188 3 -476 6 -640 6 -165 0 -297 2
-294 5 3 3 285 5 628 5 565 0 622 1 616 16 -3 8 -6 67 -6 129 0 98 -2 114 -17
117 -16 3 -16 4 0 20 13 13 17 35 17 102 0 82 -1 86 -22 86 -12 0 -32 -10 -45
-22 -13 -12 -23 -17 -23 -11 0 6 7 16 15 23 9 7 14 19 11 26 -2 6 6 22 19 34
22 21 23 24 8 38 -19 20 0 30 22 12 13 -11 15 9 15 159 0 148 -2 171 -16 171
-8 0 -12 -4 -9 -10 3 -6 -4 -10 -17 -10 -20 1 -21 2 -5 11 11 6 17 22 17 44 0
24 5 35 15 35 13 0 15 32 16 228 0 125 2 421 5 657 2 237 4 436 4 443 0 8 15
12 43 12 26 0 37 3 29 9 -14 9 77 21 157 21 34 0 42 -3 31 -10 -11 -7 -6 -8
16 -4 19 4 34 1 38 -5 10 -16 36 -13 36 3 0 9 17 19 43 25 37 9 32 10 -38 6
-44 -2 -165 -7 -270 -10 -104 -3 -289 -10 -410 -16 -894 -39 -1435 -59 -1700
-64 -115 -3 -248 -9 -295 -15 -94 -11 -290 -3 -290 13 0 5 -6 4 -14 -2 -10 -9
-15 -9 -18 -1 -2 7 -44 12 -115 13 -61 1 -109 5 -107 9 2 3 -2 9 -8 12 -7 3 3
3 22 0 29 -4 32 -3 17 6 -10 7 -29 9 -43 6 -16 -4 -33 0 -52 13 -17 13 -46 21
-79 22 -34 2 -54 7 -58 16 -3 9 -12 12 -25 8 -12 -4 -27 -1 -35 5 -8 7 -22 10
-30 6 -9 -3 -13 -2 -10 3 8 14 -22 20 -128 26 -54 2 -115 9 -135 14 -20 5 -59
9 -86 10 -27 1 -54 5 -60 9 -6 4 -26 7 -43 7 -21 0 -33 4 -33 12 0 7 -4 13
-10 13 -5 0 -10 -4 -10 -9 0 -5 -13 -14 -30 -20 -24 -8 -30 -7 -30 4 0 7 10
15 23 17 12 3 -2 5 -31 6 -29 0 -69 6 -89 13 -19 6 -70 13 -112 15 -42 2 -101
5 -131 6 -37 2 -60 -2 -70 -11 -12 -12 -15 -10 -24 8 -9 21 -13 22 -105 15
-53 -3 -98 -8 -99 -9 -2 -2 16 -8 40 -13 l43 -10 -50 -1 c-28 -1 -65 3 -83 8
-18 6 -75 11 -127 13 -52 2 -95 6 -95 9 0 4 -11 6 -25 5 -14 0 -25 -5 -25 -10
0 -4 -8 -5 -17 -1 -10 4 -45 10 -78 12 -33 3 -62 8 -65 11 -8 10 -80 10 -80 0
0 -5 -6 -6 -12 -1 -7 4 -83 8 -170 8 -86 0 -151 -3 -145 -7 19 -12 3 -17 -31
-10 -18 4 -32 11 -30 17 9 28 -164 20 -185 -9 -6 -8 -10 -8 -14 2 -2 6 -17 12
-33 12 -16 0 -30 5 -32 11 -2 7 -41 13 -98 15 -123 4 -138 7 -133 20 7 19 -66
23 -77 5 -7 -12 -12 -13 -17 -4 -5 6 -37 15 -72 19 -44 5 -68 13 -82 28 -20
21 -59 28 -71 12 -3 -5 -18 -5 -35 2 -15 6 -55 13 -88 16 -38 3 -63 10 -71 20
-9 13 -38 16 -173 16 l-161 0 0 -44z m435 -136 c4 -16 17 -38 30 -49 24 -18
24 -19 5 -36 -28 -25 -28 -105 0 -130 19 -18 20 -17 26 13 4 18 11 32 16 32 6
0 8 12 5 26 -3 19 -1 24 10 20 8 -3 19 -6 25 -6 6 0 6 -6 -2 -15 -8 -10 -11
-41 -9 -94 4 -78 11 -102 27 -87 10 11 18 155 9 172 -6 11 -1 14 20 14 20 0
24 -3 14 -9 -11 -7 -13 -25 -8 -80 3 -38 11 -79 17 -90 9 -18 8 -21 -8 -21
-11 0 -25 -13 -34 -32 l-16 -33 -16 38 c-9 20 -21 37 -26 37 -6 0 -8 15 -4 39
7 44 -5 58 -35 39 -25 -15 -36 -55 -20 -74 17 -21 3 -29 -27 -15 -15 6 -41 9
-60 5 -29 -5 -34 -10 -34 -35 0 -16 7 -32 18 -38 14 -9 14 -10 2 -11 -42 -1
-53 58 -20 100 23 30 25 68 6 115 -10 23 -11 35 -4 37 8 3 7 11 -1 26 -6 12
-8 22 -3 22 5 0 7 11 4 25 -2 15 0 25 7 25 20 0 13 51 -8 57 -11 3 -22 12 -25
20 -5 12 -1 14 16 10 13 -2 34 -1 48 3 42 13 48 11 55 -20z m228 -39 c9 -16
17 -35 17 -43 0 -8 9 -31 20 -53 21 -42 20 -55 -5 -35 -13 11 -15 0 -15 -93 0
-58 3 -112 6 -121 9 -24 25 -8 18 19 -6 25 11 44 19 21 9 -23 -4 -86 -17 -86
-7 0 -22 17 -34 39 -18 32 -22 55 -22 135 0 77 -4 104 -20 133 -21 40 -19 53
5 33 13 -11 15 -8 15 18 0 17 -4 34 -10 37 -5 3 -10 10 -10 16 0 18 16 9 33
-20z m107 -38 c0 -8 9 -31 20 -53 25 -49 25 -58 0 -35 -19 17 -19 16 -17 -93
1 -73 6 -115 15 -124 9 -9 12 -8 13 8 3 52 5 59 19 59 10 0 14 -9 13 -27 -2
-29 -31 -98 -42 -98 -13 1 -41 73 -41 108 0 21 -4 42 -9 48 -13 13 -18 69 -5
67 13 -2 16 38 4 52 -5 6 -17 29 -26 51 l-16 39 21 -19 c21 -19 21 -19 23 5 0
13 1 33 0 44 -2 20 -2 20 13 1 8 -11 15 -26 15 -33z m5175 -909 c14 -34 35
-39 35 -8 0 21 23 12 26 -10 1 -10 6 -21 9 -24 4 -4 5 2 3 12 -1 10 3 21 10
23 6 3 12 -2 12 -10 0 -15 35 -29 75 -31 13 -1 19 -7 17 -18 -3 -21 24 -14 32
8 9 22 25 8 22 -20 -3 -19 2 -23 26 -24 26 -1 128 -30 128 -36 0 -2 -33 -1
-72 1 -40 2 -68 1 -62 -4 17 -12 -2 -57 -21 -49 -9 3 -28 -7 -45 -24 -27 -26
-38 -30 -90 -30 -46 0 -61 4 -69 18 -6 9 -11 12 -11 5 0 -6 -13 -14 -29 -18
-15 -3 -34 -17 -41 -31 -16 -29 -36 -26 -33 5 3 22 -12 27 -35 12 -11 -7 -11
-9 2 -14 9 -4 16 -11 16 -17 0 -6 -5 -8 -12 -4 -8 5 -9 2 -5 -10 5 -13 3 -15
-11 -8 -9 5 -23 7 -31 4 -10 -3 -12 1 -8 17 3 11 1 21 -4 21 -5 0 -9 -9 -9
-20 0 -17 -7 -20 -50 -20 -42 0 -48 -3 -43 -17 5 -12 2 -15 -13 -11 -10 3 -25
7 -33 9 -9 3 -29 -18 -50 -50 -25 -37 -37 -49 -39 -38 -3 16 -6 16 -25 2 -18
-13 -22 -25 -22 -70 0 -30 2 -55 6 -55 3 0 21 18 40 40 19 22 37 40 42 40 4 0
7 -21 7 -48 0 -26 7 -57 15 -69 15 -22 5 -41 -15 -28 -9 6 -26 72 -22 88 4 15
-10 6 -39 -28 -36 -40 -49 -38 -49 11 0 46 -12 43 -39 -11 -12 -25 -26 -45
-31 -45 -5 0 -12 -9 -15 -20 -7 -21 -25 -28 -25 -9 0 6 20 41 44 78 77 120 77
113 7 106 -34 -3 -61 -3 -61 0 0 13 24 52 62 102 42 55 48 57 108 38 25 -8 26
-31 1 -47 -15 -9 -17 -15 -8 -30 17 -26 22 -23 57 27 17 25 38 45 46 45 8 0
12 -5 8 -11 -4 -7 1 -10 12 -7 9 1 21 16 25 31 7 25 6 27 -9 15 -13 -11 -15
-11 -9 4 5 15 1 16 -26 12 -18 -3 -37 -7 -43 -9 -19 -6 -3 35 18 46 11 6 17
13 14 17 -4 3 -20 -7 -36 -23 -33 -32 -47 -29 -30 7 7 14 -3 7 -24 -17 -24
-27 -36 -35 -36 -23 0 9 19 33 43 53 l42 36 -55 -25 c-30 -14 -65 -26 -77 -26
-12 0 -31 -12 -42 -27 -11 -16 -21 -22 -21 -15 0 19 19 54 42 76 11 10 17 24
14 32 -4 10 3 14 22 16 46 2 76 -3 84 -15 6 -9 8 -9 8 0 0 30 68 153 84 153
13 0 5 -21 -15 -41 -16 -16 -19 -27 -14 -51 4 -17 3 -28 -2 -25 -5 3 -9 -3 -9
-14 0 -10 6 -19 14 -19 7 0 10 5 6 11 -4 7 0 9 14 5 12 -4 26 -1 35 8 8 8 17
12 21 9 3 -4 6 -1 6 5 0 15 -5 15 -30 0 -30 -19 -48 3 -30 37 17 31 34 33 24
3 l-6 -23 24 23 c13 12 28 22 32 22 4 0 5 -10 2 -22 -3 -13 -3 -17 0 -9 5 11
8 11 16 0 8 -11 9 -11 5 2 -3 8 3 21 14 27 10 7 19 23 19 36 0 29 13 40 39 31
26 -8 35 -55 10 -55 -10 0 -21 -4 -24 -10 -4 -6 6 -10 24 -10 24 0 32 5 37 25
3 13 12 29 20 36 11 9 14 6 14 -15 0 -26 1 -27 18 -10 9 10 18 22 18 28 1 6 2
14 3 19 2 15 11 6 26 -29z m-4569 -29 c5 -13 9 -13 23 -3 14 11 14 11 3 -4
-11 -13 -11 -21 -2 -39 7 -13 11 -48 8 -85 -4 -71 -32 -121 -64 -116 -11 1
-94 2 -186 2 -95 -1 -169 3 -172 9 -9 13 32 20 174 27 119 5 151 11 122 21 -7
3 -18 11 -26 18 -10 10 -16 11 -24 3 -9 -9 -18 -9 -34 0 -13 6 -32 11 -43 9
-14 -1 -20 4 -19 15 1 10 -2 15 -8 12 -5 -3 -6 -14 -3 -23 4 -15 -2 -19 -32
-24 -51 -9 -61 4 -39 50 17 36 19 37 32 18 8 -11 14 -14 14 -6 0 8 8 11 20 8
15 -4 20 0 20 13 0 11 5 22 10 25 6 3 10 1 10 -5 0 -22 25 -38 43 -28 11 6 17
5 17 -2 0 -18 22 -11 27 10 6 23 23 27 23 5 0 -30 19 -14 26 23 12 66 64 109
80 67z m4734 -263 c0 -16 7 -37 15 -48 17 -22 20 -38 5 -29 -6 3 -7 -1 -4 -9
3 -9 10 -16 15 -16 5 0 9 -7 9 -16 0 -14 3 -14 15 -4 8 7 15 19 15 26 0 18 24
18 39 0 12 -14 96 -16 118 -3 15 9 27 -9 18 -30 -5 -14 -3 -14 15 2 20 18 20
18 20 -15 0 -23 4 -31 13 -27 31 12 147 19 147 9 0 -9 -102 -32 -143 -32 -9 0
-25 -8 -35 -17 -49 -47 -61 -55 -81 -48 -12 3 -21 12 -21 19 0 15 54 56 74 56
8 0 18 5 21 10 3 6 -1 10 -9 10 -8 0 -19 8 -25 18 -9 16 -10 16 -16 0 -9 -22
-22 -23 -27 -2 -3 13 -6 13 -23 -3 -12 -11 -32 -17 -50 -16 -16 2 -39 3 -50 3
-10 1 -25 6 -33 13 -11 9 -17 7 -27 -7 -8 -10 -18 -15 -24 -12 -5 3 -21 1 -36
-6 -21 -9 -32 -8 -60 5 -28 14 -35 22 -35 46 0 17 10 41 23 54 25 28 83 51 92
36 4 -5 -2 -12 -12 -15 -43 -13 -68 -31 -78 -57 -7 -22 -6 -30 5 -37 42 -27
106 10 97 56 -2 13 0 21 5 18 5 -3 6 5 3 19 -4 14 -2 28 5 32 6 4 8 15 5 26
-4 11 -2 19 4 19 6 0 11 -13 11 -28z m-5039 -71 c0 -9 7 -2 15 14 15 30 15 29
9 -19 -4 -27 -10 -58 -15 -70 -8 -18 -9 -17 -9 12 -1 17 -5 32 -11 32 -5 0
-10 -4 -10 -9 0 -5 -3 -22 -6 -38 -5 -25 -2 -31 16 -36 12 -3 19 -10 15 -16
-3 -7 2 -11 14 -11 23 0 28 -19 9 -39 -11 -10 -10 -11 5 -5 9 3 20 17 23 30 4
17 14 24 33 25 14 1 39 3 56 5 16 2 33 -2 37 -9 6 -9 10 -9 16 -1 11 17 35 22
56 12 14 -8 17 -7 11 3 -6 9 -3 11 11 7 46 -13 49 -13 46 4 -1 9 3 20 9 23 8
5 9 -4 5 -31 -3 -22 -5 -45 -6 -52 0 -10 -10 -12 -34 -9 -19 3 -39 0 -44 -5
-13 -13 -32 -2 -32 18 0 8 -4 14 -10 14 -5 0 -10 -7 -10 -15 0 -18 -52 -33
-58 -16 -7 20 -32 -8 -32 -35 0 -12 -5 -26 -11 -30 -8 -5 -10 4 -7 28 5 44
-17 41 -27 -3 -8 -35 -29 -40 -23 -5 4 17 1 23 -8 19 -8 -3 -21 3 -30 12 -16
16 -18 15 -31 -9 -19 -36 -27 -33 -18 7 8 36 18 164 17 217 -1 33 0 34 14 16
8 -11 14 -27 15 -35z m-1086 -87 c12 -13 19 -13 30 -4 8 6 23 9 35 5 17 -5 20
-15 21 -63 0 -31 3 -52 5 -45 4 8 14 9 34 3 18 -5 32 -5 35 1 11 18 42 9 55
-16 13 -24 14 -24 27 -5 8 11 20 20 27 20 8 0 16 12 19 28 8 36 31 67 45 58
17 -10 14 -63 -7 -123 -11 -32 -13 -49 -6 -43 6 5 17 27 23 49 15 50 38 70 56
50 18 -19 28 -66 16 -74 -16 -10 -1 -25 17 -18 11 4 14 2 11 -8 -3 -10 -20
-14 -56 -13 -39 1 -52 -3 -52 -14 0 -11 -8 -13 -30 -9 -16 4 -32 2 -35 -3 -3
-6 -17 -10 -30 -10 -13 0 -38 -12 -55 -27 -25 -20 -34 -23 -40 -13 -9 14 -4
36 13 58 10 13 9 13 -56 17 -28 2 -40 -3 -48 -16 -5 -11 -18 -19 -28 -19 -11
0 -21 -7 -25 -15 -7 -20 -32 -19 -40 1 -3 9 -6 49 -6 90 0 61 -3 72 -15 68
-19 -8 -19 -4 1 57 17 51 32 60 59 33z m-371 -79 c-5 -30 -4 -35 12 -33 58 5
104 -3 104 -17 0 -8 -7 -15 -15 -15 -10 0 -15 -10 -15 -33 0 -46 -35 -63 -79
-41 -24 12 -31 22 -31 44 0 16 -6 30 -12 33 -10 3 -10 9 0 26 6 11 12 32 12
46 0 16 6 25 15 25 13 0 15 -7 9 -35z m1925 -75 c6 0 11 -4 11 -10 0 -5 -11
-10 -24 -10 -22 0 -36 -16 -36 -42 0 -7 5 -7 13 1 18 14 30 2 16 -16 -14 -16
-49 -17 -49 -2 0 8 -5 8 -15 -1 -8 -7 -22 -9 -31 -6 -9 3 -31 -1 -49 -10 -19
-9 -39 -13 -45 -9 -6 4 -17 2 -25 -5 -9 -7 -15 -8 -20 0 -4 7 -11 5 -21 -4
-26 -27 -17 -37 29 -30 99 15 132 15 152 1 18 -14 14 -15 -50 -21 -39 -4 -106
-13 -150 -21 -113 -20 -233 -25 -238 -10 -4 10 20 15 94 18 9 1 15 6 12 13 -3
7 13 9 52 6 30 -2 55 -1 55 4 -1 16 -28 45 -31 35 -5 -13 -126 -25 -132 -14
-2 5 -7 21 -11 36 -5 21 -4 27 5 21 7 -4 19 2 28 14 16 22 16 22 18 -8 1 -17
-2 -30 -7 -30 -6 0 -10 -4 -10 -10 0 -22 22 -8 33 19 8 22 20 31 46 37 55 12
171 11 171 -1 0 -5 4 -4 9 4 5 8 16 11 25 8 11 -5 16 -1 16 13 0 26 19 35 33
16 11 -15 14 -15 34 3 11 11 23 18 26 15 2 -2 10 3 18 12 12 14 14 14 25 0 6
-9 16 -16 23 -16z m221 -60 c0 -5 -4 -10 -9 -10 -5 0 -8 -38 -8 -85 1 -77 3
-84 19 -79 10 3 18 1 18 -4 0 -5 -15 -13 -32 -18 -25 -7 -34 -16 -36 -37 -2
-14 -13 -35 -26 -44 -27 -22 -39 -50 -23 -56 9 -3 9 -10 -1 -31 -7 -15 -8 -25
-4 -22 14 8 64 -45 58 -61 -3 -8 -6 -22 -7 -31 0 -10 -5 -5 -11 11 -5 15 -14
27 -19 27 -5 0 -9 7 -9 15 0 11 -11 15 -41 15 l-41 0 7 40 c6 36 5 40 -14 40
-12 0 -21 6 -21 14 0 8 -7 16 -15 20 -8 3 -15 15 -15 26 0 26 -25 77 -42 83
-10 4 -9 8 2 16 10 7 11 11 3 11 -7 0 -13 9 -13 20 0 11 5 20 11 20 19 0 50
-21 44 -31 -4 -5 -1 -9 4 -9 6 0 11 -7 11 -16 0 -9 9 -29 21 -46 20 -27 22
-28 39 -13 11 10 23 14 28 11 6 -3 8 2 5 14 -4 15 0 20 13 20 16 0 17 2 4 10
-12 8 -9 10 13 10 22 0 27 5 27 23 0 13 7 32 15 43 8 10 15 33 15 51 0 17 3
38 6 47 7 18 24 22 24 6z m-1511 -92 c5 -13 12 -51 16 -85 l7 -63 36 30 36 30
22 -27 c12 -15 27 -24 35 -21 11 4 14 -9 13 -71 -1 -42 -2 -80 -3 -86 -2 -18
-21 19 -21 43 0 26 -12 29 -30 7 -16 -19 -33 -19 -70 0 -25 13 -29 13 -36 -3
-6 -12 -10 -5 -14 28 l-7 45 -1 -42 c-3 -59 -22 -54 -22 5 0 51 -12 72 -42 72
-15 0 -18 -9 -18 -55 0 -55 -16 -76 -27 -35 -5 20 -23 28 -23 10 0 -5 -4 -10
-10 -10 -5 0 -10 8 -10 17 0 9 -7 25 -16 35 -16 16 -16 18 0 24 9 3 16 12 16
20 0 8 5 14 10 14 6 0 10 -4 10 -10 0 -5 5 -10 10 -10 6 0 11 19 11 43 1 23 4
56 8 72 8 39 41 45 71 13 l21 -23 -5 28 c-6 34 20 38 33 5z m-372 -43 c-4 -8
0 -27 8 -42 13 -24 12 -29 -1 -44 -9 -10 -22 -15 -30 -12 -7 3 -25 -5 -40 -16
-15 -12 -35 -21 -46 -21 -13 0 -20 -9 -25 -30 -6 -33 -17 -45 -33 -35 -7 4 -8
11 -1 18 5 7 11 28 13 47 3 32 0 35 -24 38 -31 4 -36 16 -12 30 8 5 21 19 27
32 7 13 18 25 26 28 11 4 13 -4 7 -38 l-7 -42 33 8 c18 4 41 7 51 6 23 -1 33
24 17 43 -17 20 -5 45 21 45 14 0 19 -5 16 -15z m1406 -34 c-6 -23 -5 -25 11
-12 19 16 32 9 20 -11 -5 -7 -9 -20 -9 -28 0 -11 -14 -15 -54 -17 -29 -1 -60
-4 -68 -7 -9 -4 -22 -1 -29 5 -9 7 -14 8 -14 1 0 -6 -20 -10 -45 -10 -24 0
-49 -3 -55 -7 -6 -3 -10 4 -10 17 l-1 23 -20 -24 c-25 -31 -35 -20 -23 27 7
26 14 37 27 36 9 -1 17 2 17 7 0 5 5 9 10 9 6 0 10 -15 10 -32 0 -18 4 -28 8
-22 4 6 17 13 30 17 18 4 26 0 33 -16 9 -21 9 -21 5 2 -5 26 17 56 34 46 5 -3
10 -1 10 5 0 6 5 8 10 5 6 -4 7 -11 4 -17 -4 -6 -1 -14 6 -18 17 -11 50 0 51
16 1 12 4 26 8 38 0 2 10 2 21 -1 16 -4 18 -11 13 -32z m57 -100 c0 -11 9 -21
21 -24 16 -4 19 -11 14 -26 -5 -17 -2 -21 15 -21 17 0 19 -3 10 -19 -13 -26
-13 -40 1 -21 9 12 10 10 6 -8 -3 -14 3 -39 14 -58 10 -19 19 -53 19 -76 0
-33 3 -39 12 -30 7 7 20 12 30 12 28 0 42 47 23 76 -8 13 -22 24 -29 24 -8 0
-16 7 -20 15 -3 8 -1 15 4 15 6 0 10 7 10 16 0 12 7 15 25 12 18 -4 29 1 40
18 21 32 32 30 32 -6 0 -20 -6 -32 -19 -36 -20 -6 -25 -39 -7 -49 6 -4 7 -14
4 -24 -4 -9 -13 -35 -20 -59 -12 -38 -12 -43 1 -38 11 4 13 0 8 -19 -3 -13 -7
-41 -8 -62 -1 -21 -5 -43 -9 -49 -3 -6 -9 -28 -11 -49 -3 -21 -11 -42 -18 -46
-10 -7 -10 -9 2 -9 8 -1 2 -8 -13 -16 -16 -9 -36 -12 -45 -8 -9 4 -22 6 -29 5
-7 -1 -18 7 -25 18 -12 19 -13 19 -30 -10 -10 -16 -23 -29 -30 -29 -21 1 -56
33 -60 55 -3 18 -12 20 -116 23 -78 2 -114 6 -117 15 -8 22 -10 405 -3 400 5
-2 7 4 6 14 -1 10 2 32 6 49 6 25 13 31 32 30 18 -1 24 -7 24 -24 0 -16 4 -21
13 -15 18 11 117 12 124 1 3 -6 8 -6 12 1 4 6 17 13 29 16 25 4 29 -13 10 -34
-11 -11 -10 -13 2 -9 8 3 19 21 23 41 9 38 37 52 37 18z m477 -73 c7 -6 10
-21 6 -39 -7 -34 16 -41 24 -8 6 21 6 21 24 -2 l19 -24 0 25 c0 19 3 21 12 12
18 -18 28 -15 28 8 0 11 5 20 10 20 6 0 10 -11 10 -24 0 -34 -20 -87 -31 -80
-5 3 -9 0 -9 -6 0 -7 -7 -10 -15 -6 -9 3 -15 0 -15 -8 0 -17 -25 -27 -45 -20
-8 4 -15 13 -15 20 0 12 -5 11 -26 -2 -14 -10 -23 -23 -20 -31 6 -14 -10 -113
-20 -122 -3 -3 -9 1 -14 9 -8 12 -10 10 -10 -7 0 -13 -5 -23 -11 -23 -15 0 -5
108 10 123 8 8 11 7 11 -1 0 -7 5 -12 10 -12 7 0 8 6 2 16 -5 9 -4 41 3 78 7
34 11 73 10 87 -1 13 0 27 2 31 4 8 31 0 50 -14z m4094 -73 c-1 -6 -6 -10 -13
-10 -7 0 -22 -14 -34 -32 -12 -18 -24 -30 -27 -27 -3 3 -15 0 -27 -6 -18 -9
-28 -9 -46 0 -17 10 -27 10 -37 2 -8 -7 -38 -10 -78 -7 -35 2 -70 5 -76 5 -19
0 -16 17 9 40 18 17 19 20 5 20 -9 0 -17 5 -17 10 0 13 57 13 65 1 3 -5 -7
-19 -21 -30 l-27 -21 25 0 c14 0 33 9 43 20 11 12 13 20 6 20 -7 0 -9 5 -6 10
3 6 19 10 36 10 36 0 39 -22 4 -38 -14 -6 -25 -16 -25 -22 0 -19 33 -10 67 20
18 17 38 30 43 30 16 0 22 -21 9 -36 -6 -8 -10 -17 -7 -20 8 -8 58 18 58 30 0
12 50 45 63 42 5 -1 8 -6 8 -11z m-5716 -55 c3 -5 -1 -10 -9 -10 -13 0 -16
-12 -16 -60 0 -33 4 -60 8 -60 4 0 14 17 21 38 23 64 63 93 78 56 6 -15 7 -15
19 0 8 12 23 16 46 14 37 -3 45 -24 32 -87 l-7 -36 -8 35 c-5 19 -6 41 -4 48
2 6 0 12 -5 12 -6 0 -10 -5 -10 -11 0 -6 -7 -9 -15 -5 -9 3 -15 0 -15 -8 0 -8
-3 -22 -7 -31 -5 -15 -3 -16 14 -7 20 11 33 7 33 -10 0 -4 -11 -8 -24 -8 -24
0 -51 19 -58 40 -4 13 -38 2 -38 -11 0 -5 8 -9 17 -9 13 0 14 -3 5 -12 -9 -9
-16 -7 -32 7 -19 17 -20 17 -20 1 0 -10 -7 -25 -16 -33 -13 -14 -17 -14 -25
-2 -5 8 -9 23 -10 34 0 16 -3 14 -11 -7 -6 -17 -17 -28 -29 -28 -12 0 -19 -7
-19 -20 0 -30 -19 -24 -34 11 l-13 31 -12 -32 c-6 -18 -14 -30 -18 -26 -12 12
-10 49 3 75 8 14 14 34 14 44 0 28 18 11 25 -24 8 -37 25 -21 25 24 0 38 20
34 21 -5 l1 -33 7 30 c4 17 13 29 19 27 7 -1 15 5 17 13 3 8 7 22 10 30 5 17
31 20 40 5z m1754 -58 c1 36 21 47 21 12 0 -22 3 -25 12 -16 7 7 16 12 20 12
11 0 10 -38 -2 -60 -9 -16 -7 -19 14 -17 14 1 25 -2 26 -8 1 -15 -49 -18 -66
-4 -10 8 -14 8 -14 0 0 -6 -4 -11 -10 -11 -5 0 -11 15 -11 33 -2 30 -2 30 -6
4 -5 -29 -37 -54 -48 -37 -5 8 -11 8 -20 0 -10 -8 -17 -6 -28 10 l-15 22 -7
-21 c-3 -12 -13 -21 -22 -21 -13 0 -15 8 -10 41 7 51 15 59 33 35 14 -19 14
-19 27 -1 15 20 37 13 37 -12 0 -14 3 -14 20 2 11 10 20 28 20 40 0 36 15 39
21 3 6 -29 7 -30 8 -6z m4081 -11 c0 -5 -13 -11 -29 -14 -32 -7 -51 -41 -33
-59 16 -16 60 16 68 47 3 14 12 25 20 25 10 0 11 -6 4 -26 -14 -35 -13 -36 11
-24 11 7 27 9 34 6 8 -3 17 -1 20 4 8 13 45 13 45 0 0 -6 10 -5 25 2 34 15 55
-3 34 -28 -13 -16 -12 -16 11 -4 14 7 32 21 40 31 11 13 19 16 30 9 13 -9 13
-11 0 -20 -10 -7 -11 -10 -2 -10 7 0 12 -11 10 -27 -1 -16 2 -38 6 -50 9 -27
-2 -29 -30 -8 -15 12 -16 16 -6 23 10 7 8 11 -10 15 -22 6 -22 7 -3 21 25 19
17 20 -26 2 -34 -14 -99 -14 -131 -1 -11 4 -18 3 -18 -4 0 -6 -5 -11 -11 -11
-6 0 -8 9 -4 21 8 23 -3 20 -37 -9 -16 -14 -18 -13 -18 2 0 15 -2 15 -24 1
-19 -13 -29 -14 -45 -5 -24 12 -25 18 -11 54 14 37 80 67 80 37z m-4420 -103
c33 20 40 14 40 -38 0 -46 2 -49 18 -39 10 6 18 21 18 33 -1 16 6 22 30 24 22
2 33 -2 38 -14 8 -20 -12 -47 -30 -40 -6 2 -21 -4 -33 -15 -12 -11 -37 -21
-56 -22 -29 -2 -35 -6 -35 -24 0 -12 -4 -25 -10 -28 -5 -3 -10 -18 -10 -31 0
-16 -5 -24 -12 -22 -8 3 -11 23 -9 57 1 29 -2 57 -7 64 -5 7 -12 24 -14 40 -4
20 -1 27 10 27 8 0 12 3 9 7 -4 3 -2 12 5 20 9 11 13 11 19 1 7 -10 12 -11 29
0z m-1286 -274 c3 -8 12 -14 20 -14 19 0 26 -33 19 -91 -4 -33 -2 -49 6 -49 6
0 11 -17 10 -42 l-1 -43 -11 30 -12 30 -5 -40 c-6 -50 -33 -56 -38 -7 -2 18 1
32 7 32 16 0 13 33 -4 66 -8 16 -15 38 -15 49 -1 20 -27 62 -35 58 -3 -2 -14
-3 -26 -3 -29 0 -22 41 10 56 19 10 29 10 47 -2 12 -9 25 -22 28 -30z m1012
-293 c5 -5 20 -11 33 -13 l24 -3 -1 -138 c-1 -76 -4 -142 -6 -146 -3 -4 -28
-9 -56 -10 l-50 -1 0 41 c0 24 -6 47 -14 53 -10 8 -15 40 -18 111 l-3 100 28
1 c15 1 30 4 34 8 9 8 17 8 29 -3z m979 -241 c0 -138 -2 -162 -17 -177 -17
-16 -18 -16 -18 10 0 22 -4 27 -25 27 -23 0 -25 4 -25 45 0 25 -5 45 -10 45
-7 0 -8 -13 -4 -34 3 -19 1 -43 -4 -53 -8 -13 -12 24 -14 140 l-3 157 60 0 61
0 -1 -160z m3431 -299 c-3 -4 -25 -11 -48 -15 -24 -3 -81 -13 -128 -21 -47 -8
-102 -17 -124 -21 -28 -4 -36 -8 -28 -16 9 -9 9 -15 1 -25 -7 -7 -8 -13 -3
-13 5 0 2 -5 -6 -10 -12 -8 -12 -12 -2 -18 10 -7 10 -15 2 -36 -13 -35 -13
-36 5 -30 11 5 14 0 13 -17 -3 -21 1 -24 27 -21 51 5 59 10 44 28 -10 13 -10
17 2 25 18 11 29 11 29 0 0 -5 9 -11 21 -14 14 -4 18 -10 13 -19 -4 -7 -3 -9
1 -5 20 18 11 37 -21 47 -18 6 -38 9 -44 5 -5 -3 -10 1 -10 9 0 11 9 16 30 16
17 0 30 5 30 11 0 7 -12 10 -30 7 -16 -3 -30 -1 -30 4 0 4 9 8 20 8 27 0 25
18 -2 22 -22 4 -22 5 5 18 24 12 30 12 37 0 9 -15 40 -7 40 11 0 6 -7 9 -15 6
-8 -4 -17 -2 -20 3 -4 6 8 10 26 10 30 0 31 -2 25 -30 -5 -26 -2 -32 19 -40
17 -6 23 -14 19 -25 -6 -14 -8 -13 -20 2 -13 17 -13 17 -14 -2 0 -11 3 -30 6
-42 6 -21 11 -23 63 -18 31 3 65 8 76 12 l20 6 -20 9 c-14 6 -5 7 27 4 52 -4
63 1 47 20 -15 19 -1 38 17 23 15 -12 17 -9 8 15 -3 8 -11 13 -19 10 -9 -4
-11 2 -8 21 5 22 8 24 21 13 8 -7 17 -12 19 -10 11 8 22 0 17 -13 -5 -11 1
-15 20 -15 30 0 33 -11 10 -34 -14 -14 -10 -15 43 -11 85 6 191 22 264 40 35
8 76 15 90 15 23 0 25 3 21 30 -3 22 0 30 11 30 9 0 17 -10 19 -22 4 -27 7
-27 201 5 15 2 27 0 27 -4 0 -5 -2 -9 -4 -9 -10 0 -263 -49 -276 -54 -8 -3
-33 -7 -55 -10 -98 -14 -185 -29 -250 -44 -38 -8 -86 -17 -105 -18 -19 -1 -67
-9 -107 -17 -40 -8 -74 -12 -77 -9 -3 3 -11 0 -19 -6 -7 -6 -22 -11 -32 -10
-11 0 -51 -5 -89 -11 -37 -7 -85 -14 -105 -16 -35 -4 -95 -14 -216 -36 -33 -6
-76 -12 -95 -14 -37 -4 -137 -21 -210 -35 -58 -11 -96 -17 -265 -40 -44 -7
-87 -14 -95 -17 -8 -3 -37 -7 -63 -9 -27 -1 -63 -7 -80 -13 -18 -6 -77 -15
-132 -21 -55 -6 -125 -15 -155 -20 -147 -25 -288 -36 -620 -49 -453 -18 -872
-23 -865 -11 4 6 30 10 58 10 51 -1 191 8 417 29 63 6 232 15 375 21 143 6
280 13 305 15 25 3 88 7 140 10 52 3 138 10 190 15 116 12 179 18 203 19 36 2
15 21 -23 21 -37 0 -49 8 -33 23 3 4 12 2 20 -4 15 -13 14 -15 17 35 1 23 7
41 15 44 9 3 10 7 2 11 -6 4 -12 18 -14 31 -4 22 -9 25 -38 22 -19 -2 -35 -8
-37 -13 -2 -5 -10 -9 -18 -9 -8 0 -14 -4 -14 -10 0 -5 -12 -10 -27 -10 -20 0
-24 3 -14 9 19 12 -21 25 -49 16 -11 -4 -55 -10 -98 -15 -42 -5 -88 -11 -102
-14 -14 -2 -67 -10 -118 -17 -80 -10 -92 -14 -87 -29 3 -10 0 -20 -8 -23 -10
-4 -13 2 -12 17 2 19 -1 22 -21 18 -13 -2 -21 -8 -18 -13 3 -5 -2 -9 -11 -9
-9 0 -13 5 -10 10 4 7 -2 9 -17 6 -52 -11 -268 -36 -317 -36 -98 0 23 23 391
75 327 46 308 42 308 70 0 13 5 36 11 52 6 15 11 41 11 58 -1 36 23 65 54 65
38 0 71 -48 44 -65 -5 -3 -10 -32 -10 -64 l0 -57 273 37 c149 21 291 41 315
44 36 5 42 10 42 30 0 12 8 32 18 44 27 32 194 47 507 43 192 -2 279 1 335 12
90 17 123 19 116 7z m1064 -156 c0 -8 -4 -15 -8 -15 -5 0 -19 -9 -32 -20 -18
-16 -37 -20 -90 -20 -56 0 -276 -32 -285 -42 -2 -2 0 -18 4 -37 5 -26 12 -35
29 -36 35 -3 39 -15 4 -15 -28 0 -31 -3 -41 -51 -6 -28 -9 -54 -6 -59 7 -11
42 -1 55 15 6 8 18 11 26 8 66 -25 -131 -72 -308 -73 l-78 0 0 30 c0 38 -22
50 -93 47 -66 -2 -67 -4 -67 -117 0 -41 -5 -111 -10 -155 -6 -44 -21 -178 -35
-298 -14 -134 -28 -224 -37 -234 -9 -11 -13 -47 -13 -113 0 -56 -5 -103 -11
-111 -6 -8 -14 -48 -18 -89 -4 -48 -12 -79 -21 -86 -8 -6 -65 -14 -127 -18
-62 -3 -125 -9 -140 -12 -27 -6 -28 -5 -28 34 0 22 7 76 16 119 9 43 15 92 15
109 -1 17 4 44 10 60 7 16 11 36 10 45 -3 24 108 679 118 698 5 9 12 37 16 63
6 40 4 48 -13 57 -12 6 -39 11 -62 11 -34 0 -42 -4 -50 -26 -15 -38 -12 -55
10 -61 114 -30 -248 -77 -550 -71 l-165 3 0 35 c0 33 -2 35 -37 38 -20 2 -51
-1 -69 -6 l-34 -8 -1 -195 c-1 -107 -9 -322 -18 -479 -9 -157 -19 -341 -21
-410 -3 -69 -10 -139 -16 -157 l-11 -33 -166 0 c-185 0 -289 12 -342 38 -32
16 -35 20 -34 59 1 58 22 78 105 98 38 10 69 20 69 22 0 3 -36 2 -80 -1 l-80
-7 0 26 c0 46 90 667 105 725 8 30 19 89 25 129 6 41 16 81 22 88 16 19 -6 40
-50 47 -82 14 -92 18 -92 33 0 13 -8 14 -42 9 -24 -3 -131 -13 -238 -21 -107
-8 -208 -17 -225 -19 -16 -2 -50 -1 -75 3 l-45 7 70 12 c39 6 102 13 140 16
39 3 95 10 125 16 30 5 127 14 215 20 88 5 198 13 245 16 102 8 102 -1 0 -17
-86 -13 -95 -16 -81 -33 12 -15 104 -7 286 25 162 29 192 34 320 54 130 20
586 97 735 124 58 11 157 29 220 40 336 60 405 73 411 76 5 4 40 10 189 35 36
6 76 13 90 15 14 3 59 9 100 15 42 6 105 17 140 24 88 19 120 20 120 1z
m-6640 -49 c0 -25 5 -79 11 -122 7 -54 7 -84 0 -98 -6 -12 -12 -41 -13 -66
l-3 -45 -49 3 c-27 1 -56 8 -64 14 -8 7 -40 11 -74 11 -46 -2 -59 1 -55 11 5
14 -50 26 -114 26 -16 0 -29 5 -29 10 0 6 29 8 77 6 47 -3 82 -1 90 6 10 8 13
6 14 -8 0 -11 3 -14 6 -6 2 6 16 12 30 12 15 0 23 5 21 13 -5 14 -110 34 -189
36 l-56 1 -6 -47 c-6 -59 -25 -75 -73 -62 -19 6 -39 7 -46 3 -8 -5 -9 0 -5 17
4 13 7 39 7 57 0 25 4 32 20 32 28 0 25 14 -5 28 -26 12 -26 9 -29 170 -1 25
2 27 49 33 28 3 148 7 268 7 l217 2 0 -44z m3000 -78 c0 -64 -3 -88 -10 -78
-5 8 -7 22 -4 31 3 11 -3 18 -16 22 -11 3 -20 10 -20 16 0 6 6 8 14 5 8 -3 17
-1 21 5 3 6 1 11 -4 11 -6 0 -11 8 -12 18 0 14 -2 14 -9 -3 -8 -18 -9 -17 -9
8 -1 24 -5 27 -38 27 -20 0 -64 -4 -97 -9 -34 -6 -104 -15 -156 -21 -52 -6
-108 -13 -125 -15 -77 -10 -211 -26 -263 -31 -31 -3 -59 -8 -61 -10 -10 -10 8
-13 35 -6 35 9 84 4 84 -9 0 -5 -11 -7 -25 -3 -34 8 -75 -3 -75 -21 0 -8 7
-15 16 -15 10 0 14 6 11 14 -4 10 1 14 14 13 12 -1 18 -6 14 -15 -3 -8 3 -16
15 -19 11 -3 20 -9 20 -14 0 -5 7 -9 16 -9 8 0 13 4 9 9 -3 5 -1 12 4 15 5 3
11 -3 14 -14 3 -11 0 -20 -6 -21 -82 -7 -97 -5 -91 13 6 19 -3 22 -30 12 -8
-3 -13 -13 -10 -22 5 -15 4 -15 -9 1 -16 20 -28 22 -25 5 4 -15 -66 -31 -71
-16 -2 7 -6 7 -10 -1 -8 -12 -73 -16 -368 -25 -168 -5 -183 -4 -183 12 -1 16
-1 16 -11 0 -6 -11 -22 -18 -38 -18 -26 0 -29 3 -29 38 l-1 38 87 13 c48 6
159 20 247 31 88 11 255 31 370 45 280 35 720 83 773 84 l42 1 0 -92z m-1867
-140 c6 -4 23 -4 37 -2 44 9 61 -14 54 -72 l-6 -51 -61 -7 c-44 -4 -63 -3 -69
6 -14 23 -9 115 7 128 8 7 16 20 16 29 1 11 3 10 6 -4 3 -11 10 -23 16 -27z
m2802 -178 c4 -6 0 -22 -9 -35 -10 -15 -12 -26 -6 -30 12 -7 14 -45 3 -45 -5
0 -55 -8 -113 -16 -117 -17 -714 -31 -824 -19 -59 6 -66 9 -66 28 0 31 -9 40
-57 61 -51 23 -47 36 12 36 42 0 64 -18 50 -40 -3 -5 14 -7 37 -5 24 2 99 7
168 10 178 8 525 34 660 49 63 8 120 14 127 15 6 0 15 -4 18 -9z m2247 -63
c-3 -52 -2 -56 15 -50 10 3 25 12 33 19 9 7 21 10 28 5 37 -23 -81 -59 -229
-71 -154 -11 -159 -10 -159 49 0 88 3 91 84 92 39 1 96 4 126 9 30 4 66 7 80
6 24 -1 25 -3 22 -59z m-3402 -32 c0 -35 -39 -43 -240 -44 -107 -1 -323 -6
-480 -11 -157 -5 -425 -10 -596 -10 -268 0 -313 -2 -318 -15 -9 -24 -107 -20
-129 5 -15 17 -31 20 -119 22 -57 1 -128 1 -158 -1 -38 -1 -51 1 -41 8 8 5 80
10 159 10 80 1 148 3 152 6 4 2 137 5 296 6 159 2 390 6 514 10 124 3 335 10
470 14 135 4 247 9 249 11 2 2 58 4 123 4 97 0 118 -3 118 -15z m2552 -68 c-2
-27 1 -54 8 -62 10 -12 7 -17 -16 -26 -76 -29 -214 -42 -444 -43 l-235 -1 -3
46 c-2 25 1 57 7 71 l9 25 219 7 c120 5 256 14 303 21 47 7 101 12 120 11 l35
-1 -3 -48z m-1442 -156 c0 -46 -4 -72 -14 -80 -31 -26 -240 -43 -589 -48 -280
-4 -350 -3 -363 8 -13 10 -15 25 -10 65 11 92 -5 86 195 78 183 -7 457 6 631
30 163 23 150 27 150 -53z m2244 -6 c-7 -61 -1 -66 40 -34 18 14 31 18 37 12
13 -13 -5 -28 -61 -47 -50 -18 -269 -42 -294 -33 -18 7 -22 79 -6 121 9 24 13
25 107 29 54 1 117 4 141 5 l42 2 -6 -55z m-849 -115 c0 -30 4 -61 8 -68 10
-14 6 -16 -84 -36 -115 -26 -514 -55 -558 -41 -20 6 -22 12 -19 78 l3 72 180
6 c176 7 336 22 405 39 60 14 65 10 65 -50z m-1426 -129 c0 -34 -15 -120 -21
-126 -8 -8 -218 -34 -363 -45 -77 -5 -233 -10 -346 -10 -179 0 -208 2 -213 16
-11 28 -6 130 6 142 9 9 81 12 264 12 257 0 439 11 574 34 88 15 100 13 99
-23z m2026 10 c3 -5 21 -7 40 -4 23 4 35 2 35 -6 0 -6 5 -11 11 -11 5 0 7 5 4
10 -3 6 3 10 15 10 12 0 19 -4 16 -9 -3 -5 10 -12 29 -15 29 -6 35 -11 35 -31
0 -30 18 -32 53 -5 29 23 47 26 47 6 0 -8 -19 -22 -42 -31 -83 -33 -308 -59
-308 -35 0 6 31 10 73 10 84 0 119 14 60 23 -21 4 -57 7 -79 7 -46 0 -63 20
-38 41 14 11 14 13 0 21 -9 5 -16 13 -16 18 0 13 57 13 65 1z m-5979 -86 c3
-25 4 -48 2 -50 -12 -13 -103 -23 -110 -13 -3 6 -27 11 -52 10 -45 -2 -46 -2
-29 18 10 11 27 20 38 21 20 0 20 0 0 9 -15 7 -16 9 -4 9 9 1 22 7 29 15 11
15 38 21 92 25 24 1 27 -3 34 -44z m5337 -34 c9 -37 -15 -63 -76 -81 -84 -26
-83 -34 6 -27 42 4 77 3 77 -2 0 -37 -549 -104 -624 -75 -20 8 -23 123 -4 142
8 8 45 12 99 12 116 0 329 18 404 35 88 19 112 18 118 -4z m1332 -141 l25 -24
-20 -21 c-26 -28 -164 -61 -229 -56 -10 1 -12 11 -8 42 3 23 9 45 14 50 12 12
131 36 165 34 15 0 39 -12 53 -25z m-2762 -60 c-3 -74 -13 -109 -31 -114 -86
-28 -519 -59 -737 -54 l-130 3 -3 60 c-2 32 -1 69 3 82 l5 23 205 0 c212 0
399 12 545 35 47 7 99 12 115 12 29 -2 30 -4 28 -47z m3054 -52 c-3 -40 -11
-161 -17 -268 -14 -255 -15 -262 -43 -258 -21 3 -22 8 -23 103 -2 111 14 463
21 483 2 6 19 12 36 12 l31 0 -5 -72z m-1671 -22 c3 -8 0 -32 -6 -55 -8 -31
-16 -41 -32 -41 -27 0 -261 40 -267 46 -11 11 19 20 132 40 151 27 166 28 173
10z m829 -13 c53 -32 69 -68 39 -90 -32 -23 -116 -44 -201 -50 l-83 -6 0 41 0
42 68 30 c37 16 78 36 92 44 34 19 33 20 85 -11z m-1219 -43 c107 -27 242 -81
249 -99 3 -8 0 -18 -7 -23 -10 -6 -8 -11 7 -21 11 -6 25 -12 30 -13 46 -3 76
-18 81 -41 8 -31 -11 -48 -69 -64 -87 -23 -257 -30 -257 -10 0 3 23 17 50 29
l51 23 -47 24 c-30 15 -53 21 -63 16 -9 -5 -50 -11 -91 -15 -41 -3 -84 -8 -95
-11 -41 -11 -50 8 -49 108 1 52 4 100 8 106 11 17 115 13 202 -9z m-1280 -185
c80 -30 128 -58 172 -99 64 -60 44 -72 -203 -115 -76 -14 -547 -23 -565 -11
-18 11 -27 186 -11 210 8 11 52 17 193 26 303 18 338 18 414 -11z m-768 -27
c14 -14 16 -136 2 -158 -8 -12 -13 -13 -30 -2 -11 6 -27 12 -35 12 -8 0 -15 5
-15 10 0 6 -11 10 -24 10 -14 0 -28 5 -31 10 -3 6 -17 10 -30 10 -30 0 -59 38
-44 56 11 13 112 49 159 57 14 2 27 5 31 6 3 0 10 -4 17 -11z"/>
<path d="M6498 4663 c-54 -4 -75 -15 -45 -26 6 -2 -4 -11 -23 -19 -39 -17 -48
-15 -32 5 8 10 6 16 -9 25 -24 15 -39 8 -39 -19 0 -13 -7 -19 -22 -19 -13 0
-30 -5 -38 -10 -13 -8 -12 -10 3 -10 9 0 17 -8 17 -17 0 -15 4 -14 19 6 11 14
21 19 25 13 3 -5 15 -8 26 -5 12 3 20 0 20 -6 0 -8 11 -10 34 -6 22 5 36 3 41
-5 5 -8 12 -2 21 19 16 39 37 42 28 4 -10 -43 -10 -45 3 -50 10 -4 23 19 23
40 0 4 11 18 26 30 25 22 25 24 10 40 -10 9 -20 16 -24 15 -4 -1 -33 -3 -64
-5z"/>
<path d="M1753 3768 c-10 -22 -9 -27 3 -32 11 -4 14 -39 14 -195 l0 -190 44 1
c44 0 44 1 44 37 1 20 -4 53 -9 73 -9 35 1 191 17 260 5 20 1 29 -16 38 -16 9
-25 9 -33 1 -19 -19 -45 -13 -49 11 -3 22 -3 21 -15 -4z"/>
<path d="M5830 2270 c-13 -9 -13 -10 0 -10 12 0 13 -2 1 -9 -7 -5 -21 -7 -30
-4 -15 4 -17 -3 -16 -52 2 -59 -9 -83 -18 -37 -3 16 -18 34 -36 45 -35 20 -41
38 -11 30 14 -4 20 0 20 12 0 14 -6 16 -31 11 -17 -3 -35 -6 -40 -6 -5 0 -9
-7 -9 -15 0 -12 -5 -13 -27 -4 -36 13 -67 5 -81 -23 -8 -18 -11 -19 -11 -5 -1
21 -42 23 -138 6 -60 -11 -63 -12 -63 -40 0 -34 -9 -36 -41 -9 -21 17 -22 19
-6 20 11 0 15 -4 11 -11 -4 -7 -1 -10 7 -7 8 3 15 12 17 21 3 13 -4 15 -35 11
-69 -9 -83 -14 -83 -29 0 -22 -17 -27 -34 -10 -14 15 -15 13 -10 -13 4 -20 2
-31 -9 -35 -10 -4 -13 -14 -9 -33 3 -19 1 -25 -7 -20 -6 4 -9 11 -6 16 9 14
-6 38 -28 45 -18 6 -19 8 -5 12 9 2 19 12 23 21 5 13 4 14 -6 5 -7 -7 -25 -10
-43 -7 -30 5 -30 5 -12 -10 19 -16 19 -16 -1 -16 -12 0 -28 -7 -37 -15 -13
-14 -16 -13 -29 6 -11 15 -21 19 -37 14 -16 -5 -19 -9 -10 -15 17 -10 -3 -22
-24 -14 -12 4 -16 0 -16 -16 0 -13 4 -19 11 -14 8 4 9 0 4 -15 -4 -15 -2 -21
9 -21 12 0 14 -7 10 -30 l-6 -30 86 0 c80 0 87 2 82 18 -4 12 -1 19 8 19 8 0
12 -6 9 -14 -3 -7 -2 -13 1 -13 18 0 378 52 416 60 56 12 94 18 220 32 8 0 23
10 33 21 14 17 17 18 17 4 0 -23 20 -22 21 1 0 10 3 12 6 5 13 -34 20 -5 17
72 -3 81 -2 87 19 95 22 9 22 9 -3 9 -14 0 -32 -4 -40 -9z"/>
<path d="M6775 5743 c-195 -12 -632 -45 -640 -48 -11 -5 177 1 510 15 121 5
252 10 290 10 64 1 68 2 51 15 -19 15 -74 17 -211 8z"/>
<path d="M202 5533 l3 -37 -43 3 c-23 1 -57 7 -75 12 -17 5 -44 9 -59 9 -26 0
-28 -3 -28 -38 0 -31 5 -41 24 -50 28 -13 36 -7 36 25 0 20 4 24 27 21 32 -4
44 -28 14 -28 -19 0 -32 -29 -13 -31 4 0 19 -2 34 -4 15 -2 32 3 39 11 9 11 9
14 0 14 -7 0 -9 5 -5 11 4 7 23 8 52 4 40 -6 44 -5 38 11 -4 10 -10 37 -13 61
-4 28 -11 43 -20 43 -11 0 -14 -10 -11 -37z"/>
<path d="M7485 5513 c-22 -1 -83 -6 -135 -9 -104 -7 -103 -9 28 -45 46 -12 89
-27 95 -34 21 -20 47 -26 47 -10 0 15 53 30 70 20 6 -4 10 11 10 39 l0 46 -37
-2 c-21 -1 -56 -3 -78 -5z"/>
<path d="M1156 5041 c-4 -5 -2 -12 4 -16 7 -4 10 -193 10 -552 0 -301 2 -544
4 -542 2 2 6 248 10 547 4 299 7 548 9 555 3 14 -29 21 -37 8z"/>
<path d="M31 4752 c-7 -14 -5 -21 10 -30 34 -21 18 -72 -23 -72 -16 0 -18 -10
-18 -89 l0 -89 45 2 c25 2 48 6 52 9 6 7 -1 9 -36 11 -29 2 -21 26 13 40 37
16 59 47 38 54 -7 2 -12 8 -12 13 0 10 43 12 89 3 27 -6 33 -13 43 -51 7 -29
15 -42 24 -39 7 3 29 8 49 12 30 5 36 10 32 26 -5 17 -1 18 39 12 32 -4 44 -3
44 6 0 7 -7 10 -15 6 -8 -3 -15 -1 -15 4 0 17 -65 58 -103 65 -32 6 -36 5 -31
-9 5 -13 -1 -15 -37 -12 -24 2 -55 4 -69 5 -17 1 -26 7 -28 19 -7 65 -16 99
-30 110 -23 17 -50 15 -61 -6z"/>
<path d="M1047 2344 c-10 -10 -8 -364 2 -364 15 0 141 40 141 45 0 3 -13 2
-30 -1 l-30 -6 0 96 c0 59 -4 96 -10 96 -7 0 -7 6 -2 18 5 9 10 41 11 70 l2
52 -39 0 c-21 0 -41 -3 -45 -6z"/>
<path d="M6027 268 c-10 -235 -33 -183 -31 70 0 30 -3 39 -10 32 -7 -7 -12
-62 -12 -133 -2 -157 5 -237 21 -237 8 0 11 8 8 20 -3 11 0 20 6 20 6 0 11 -9
11 -20 0 -11 4 -20 9 -20 6 0 10 87 11 205 0 113 -1 205 -3 205 -2 0 -7 -64
-10 -142z"/>
</g>
</svg>
