<svg id="svg" version="1.1" xmlns="http://www.w3.org/2000/svg" xmlns:xlink="http://www.w3.org/1999/xlink" width="400" height="225" viewBox="0, 0, 400,225"><g id="svgg"><path id="path0" d="M103.722 32.208 C 103.783 39.840,103.833 47.190,103.833 48.542 L 103.833 51.000 114.311 51.000 L 124.789 51.000 150.478 89.534 L 176.168 128.068 176.126 149.576 L 176.083 171.083 161.208 171.126 L 146.333 171.168 146.333 189.084 L 146.333 207.000 199.833 207.000 L 253.333 207.000 253.333 189.083 L 253.333 171.167 238.500 171.167 L 223.667 171.167 223.667 149.573 L 223.667 127.979 227.458 122.315 C 229.544 119.199,231.325 116.523,231.417 116.367 C 231.508 116.211,233.913 112.596,236.761 108.333 C 239.609 104.071,242.464 99.796,243.105 98.833 C 243.747 97.871,245.842 94.739,247.761 91.873 C 249.680 89.007,251.325 86.532,251.417 86.373 C 251.509 86.214,251.921 85.596,252.333 85.000 C 252.745 84.404,253.158 83.785,253.250 83.624 C 253.341 83.463,253.762 82.825,254.185 82.207 C 254.608 81.589,256.551 78.683,258.504 75.750 C 264.505 66.734,266.293 64.054,268.817 60.284 C 270.155 58.287,271.325 56.529,271.417 56.377 C 271.508 56.226,271.940 55.592,272.375 54.967 C 272.810 54.343,273.167 53.798,273.167 53.756 C 273.167 53.713,273.591 53.076,274.109 52.339 L 275.052 51.000 285.526 51.000 L 296.000 51.000 296.000 34.667 L 296.000 18.333 257.833 18.333 L 219.667 18.333 219.667 34.665 L 219.667 50.997 227.086 51.040 L 234.505 51.083 232.984 53.417 C 232.147 54.700,230.978 56.500,230.387 57.417 C 228.126 60.920,224.695 66.220,221.023 71.878 C 220.323 72.957,219.254 74.607,218.647 75.545 C 218.041 76.483,216.837 78.337,215.973 79.667 C 215.108 80.996,214.142 82.490,213.825 82.986 C 213.509 83.483,212.637 84.833,211.888 85.986 C 211.138 87.140,210.040 88.833,209.447 89.750 C 208.854 90.667,207.810 92.279,207.127 93.333 C 206.443 94.388,204.961 96.675,203.832 98.417 C 202.704 100.158,201.452 102.090,201.051 102.708 C 200.134 104.123,200.273 104.171,198.856 101.958 C 197.385 99.663,194.508 95.214,192.469 92.083 C 191.633 90.800,190.708 89.375,190.413 88.917 C 190.119 88.458,189.171 86.996,188.307 85.667 C 184.558 79.898,182.473 76.683,180.883 74.219 C 177.156 68.445,176.029 66.699,174.750 64.722 C 172.021 60.503,168.895 55.685,167.543 53.616 C 166.776 52.442,166.108 51.373,166.057 51.241 C 165.977 51.033,166.931 51.000,172.982 51.000 L 180.000 51.000 180.000 34.667 L 180.000 18.333 141.806 18.333 L 103.612 18.333 103.722 32.208 M175.833 34.665 L 175.833 46.830 167.007 46.874 L 158.182 46.917 159.299 48.614 C 159.914 49.548,160.766 50.861,161.192 51.531 C 161.618 52.202,163.358 54.887,165.059 57.500 C 166.759 60.112,168.534 62.850,169.003 63.583 C 169.472 64.317,170.544 65.981,171.386 67.282 C 174.158 71.567,177.707 77.043,179.302 79.500 C 180.165 80.829,181.369 82.687,181.977 83.628 C 182.586 84.569,183.994 86.744,185.108 88.461 C 186.222 90.178,187.618 92.333,188.212 93.250 C 188.805 94.167,189.851 95.779,190.536 96.833 C 191.221 97.888,192.216 99.425,192.747 100.250 C 193.279 101.075,194.226 102.537,194.852 103.500 C 199.086 110.011,200.006 111.435,200.072 111.583 C 200.164 111.792,200.343 111.560,201.574 109.634 C 202.118 108.781,203.102 107.258,203.760 106.250 C 205.179 104.074,207.921 99.842,212.128 93.333 C 215.112 88.717,216.377 86.765,218.285 83.833 C 218.793 83.054,220.372 80.617,221.795 78.417 C 223.218 76.217,224.773 73.817,225.250 73.083 C 225.726 72.350,226.477 71.188,226.918 70.500 C 227.824 69.088,229.725 66.153,231.182 63.917 C 231.720 63.092,232.630 61.688,233.205 60.797 C 233.780 59.906,235.637 57.036,237.333 54.421 C 239.029 51.805,240.813 49.047,241.298 48.291 L 242.179 46.917 233.006 46.874 L 223.833 46.831 223.833 34.665 L 223.833 22.500 257.833 22.500 L 291.833 22.500 291.833 34.667 L 291.833 46.833 282.271 46.833 L 272.709 46.833 246.021 86.863 L 219.333 126.892 219.333 151.113 L 219.333 175.333 234.250 175.333 L 249.167 175.333 249.167 189.000 L 249.167 202.667 199.917 202.667 L 150.667 202.667 150.667 189.000 L 150.667 175.333 165.500 175.333 L 180.333 175.333 180.333 151.042 L 180.333 126.751 153.708 86.797 L 127.083 46.843 117.542 46.838 L 108.000 46.833 107.997 41.708 C 107.996 38.890,107.947 33.415,107.888 29.542 L 107.782 22.500 141.808 22.500 L 175.833 22.500 175.833 34.665 " stroke="none" fill="#fcfcfc" fill-rule="evenodd"></path><path id="path1" d="M103.553 19.333 C 103.553 19.929,103.584 20.173,103.621 19.875 C 103.658 19.577,103.658 19.090,103.621 18.792 C 103.584 18.494,103.553 18.737,103.553 19.333 M291.707 34.625 L 291.667 46.667 282.177 46.667 C 276.957 46.667,272.652 46.723,272.609 46.792 C 272.567 46.860,276.840 46.897,282.105 46.872 C 289.511 46.838,291.697 46.781,291.758 46.622 C 291.801 46.509,291.816 41.054,291.792 34.500 L 291.748 22.583 291.707 34.625 M112.708 46.792 C 115.344 46.817,119.656 46.817,122.292 46.792 C 124.927 46.766,122.771 46.745,117.500 46.745 C 112.229 46.745,110.073 46.766,112.708 46.792 M162.553 46.792 C 165.012 46.818,168.987 46.818,171.387 46.792 C 173.787 46.766,171.775 46.744,166.917 46.744 C 162.058 46.744,160.095 46.766,162.553 46.792 M228.470 46.792 C 231.066 46.817,235.266 46.817,237.804 46.792 C 240.341 46.766,238.217 46.745,233.083 46.745 C 227.950 46.745,225.874 46.766,228.470 46.792 M109.042 51.125 C 111.952 51.150,116.715 51.150,119.625 51.125 C 122.535 51.099,120.154 51.078,114.333 51.078 C 108.513 51.078,106.131 51.099,109.042 51.125 M166.000 51.125 C 166.000 51.239,171.203 51.236,177.583 51.120 C 178.958 51.095,176.915 51.057,173.042 51.037 C 169.169 51.017,166.000 51.056,166.000 51.125 M223.220 51.125 C 225.311 51.151,228.686 51.151,230.720 51.125 C 232.753 51.098,231.042 51.077,226.917 51.077 C 222.792 51.077,221.128 51.098,223.220 51.125 M280.208 51.125 C 283.119 51.150,287.881 51.150,290.792 51.125 C 293.702 51.099,291.321 51.078,285.500 51.078 C 279.679 51.078,277.298 51.099,280.208 51.125 M176.081 149.417 C 176.081 161.242,176.101 166.104,176.125 160.221 C 176.149 154.339,176.149 144.664,176.125 138.721 C 176.101 132.779,176.081 137.592,176.081 149.417 " stroke="none" fill="#7494b4" fill-rule="evenodd"></path><path id="path2" d="M141.833 18.291 L 179.998 18.334 180.042 34.667 L 180.086 51.000 180.085 34.625 L 180.083 18.250 141.875 18.249 L 103.667 18.249 141.833 18.291 M219.577 18.375 C 219.533 18.490,219.517 25.896,219.541 34.833 L 219.585 51.083 219.626 34.709 L 219.667 18.334 257.875 18.292 L 296.083 18.249 257.870 18.208 C 227.422 18.175,219.640 18.209,219.577 18.375 M107.905 26.500 C 107.905 28.746,107.929 29.665,107.958 28.542 C 107.987 27.419,107.987 25.581,107.958 24.458 C 107.929 23.335,107.905 24.254,107.905 26.500 M103.743 44.000 C 103.743 47.896,103.765 49.490,103.791 47.542 C 103.818 45.594,103.818 42.406,103.791 40.458 C 103.765 38.510,103.743 40.104,103.743 44.000 M180.414 151.083 C 180.414 164.467,180.434 169.966,180.458 163.305 C 180.482 156.643,180.482 145.693,180.458 138.971 C 180.434 132.250,180.414 137.700,180.414 151.083 M153.708 171.125 C 157.810 171.150,164.523 171.150,168.625 171.125 C 172.727 171.100,169.371 171.080,161.167 171.080 C 152.962 171.080,149.606 171.100,153.708 171.125 M238.499 171.125 L 253.332 171.168 253.375 189.084 L 253.419 207.000 253.418 189.042 L 253.417 171.083 238.542 171.082 L 223.667 171.081 238.499 171.125 " stroke="none" fill="#ccd4e4" fill-rule="evenodd"></path><path id="path3" d="M296.080 34.583 C 296.080 43.658,296.100 47.346,296.125 42.779 C 296.150 38.212,296.150 30.787,296.125 26.279 C 296.100 21.771,296.080 25.508,296.080 34.583 M103.573 26.667 C 103.573 29.096,103.596 30.090,103.625 28.875 C 103.653 27.660,103.653 25.673,103.625 24.458 C 103.596 23.244,103.573 24.238,103.573 26.667 M141.791 22.625 L 175.664 22.667 175.709 34.709 L 175.753 46.750 175.752 34.667 L 175.750 22.583 141.833 22.583 L 107.917 22.582 141.791 22.625 M223.910 22.708 C 223.866 22.823,223.850 28.279,223.875 34.833 L 223.919 46.750 223.959 34.709 L 224.000 22.667 257.875 22.625 L 291.750 22.583 257.870 22.541 C 230.889 22.508,223.973 22.542,223.910 22.708 M108.074 41.583 C 108.074 44.425,108.097 45.611,108.125 44.219 C 108.152 42.827,108.153 40.502,108.125 39.052 C 108.097 37.603,108.074 38.742,108.074 41.583 M158.138 175.458 C 162.292 175.483,169.042 175.483,173.138 175.458 C 177.233 175.433,173.833 175.413,165.583 175.413 C 157.333 175.413,153.983 175.433,158.138 175.458 M234.166 175.458 L 248.998 175.502 249.042 188.959 L 249.086 202.417 249.085 188.917 L 249.083 175.417 234.208 175.415 L 219.333 175.414 234.166 175.458 " stroke="none" fill="#4c6c94" fill-rule="evenodd"></path><path id="path4" d="M98.594 13.150 C 98.542 13.233,98.539 19.027,98.585 26.025 C 98.631 33.024,98.668 42.669,98.668 47.458 L 98.667 56.167 110.375 56.171 L 122.083 56.175 123.750 58.765 C 124.667 60.189,125.498 61.445,125.598 61.555 C 125.697 61.665,126.106 62.279,126.507 62.919 C 126.907 63.559,127.283 64.121,127.342 64.167 C 127.401 64.212,127.776 64.775,128.176 65.417 C 128.575 66.058,128.950 66.621,129.009 66.667 C 129.068 66.712,129.327 67.086,129.584 67.496 C 129.842 67.907,130.153 68.343,130.276 68.467 C 130.399 68.590,130.500 68.798,130.500 68.929 C 130.500 69.060,130.561 69.167,130.636 69.167 C 130.711 69.167,130.940 69.465,131.145 69.831 C 131.350 70.196,131.610 70.589,131.723 70.706 C 131.835 70.822,132.256 71.441,132.658 72.081 C 133.059 72.721,133.488 73.345,133.611 73.468 C 133.733 73.590,133.833 73.791,133.833 73.915 C 133.833 74.038,133.895 74.164,133.970 74.194 C 134.044 74.225,134.792 75.300,135.630 76.583 C 136.468 77.867,137.222 78.997,137.305 79.095 C 137.388 79.193,137.782 79.793,138.179 80.428 C 138.577 81.063,138.950 81.621,139.009 81.667 C 139.068 81.712,139.327 82.086,139.584 82.496 C 139.842 82.907,140.153 83.343,140.276 83.467 C 140.399 83.590,140.500 83.791,140.500 83.915 C 140.500 84.038,140.559 84.164,140.630 84.194 C 140.804 84.268,142.167 86.330,142.167 86.519 C 142.167 86.600,142.228 86.667,142.303 86.667 C 142.377 86.667,142.598 86.948,142.793 87.292 C 142.988 87.635,143.267 88.067,143.413 88.250 C 143.560 88.433,144.463 89.783,145.421 91.250 C 146.378 92.717,147.270 94.067,147.402 94.250 C 148.057 95.161,148.833 96.382,148.833 96.503 C 148.833 96.578,148.892 96.664,148.964 96.694 C 149.137 96.768,150.500 98.830,150.500 99.019 C 150.500 99.100,150.561 99.167,150.636 99.167 C 150.711 99.167,150.940 99.465,151.145 99.831 C 151.350 100.196,151.610 100.589,151.723 100.706 C 151.835 100.822,152.256 101.441,152.658 102.081 C 153.059 102.721,153.488 103.345,153.611 103.468 C 153.733 103.590,153.833 103.791,153.833 103.915 C 153.833 104.038,153.892 104.164,153.965 104.194 C 154.132 104.265,157.167 108.822,157.167 109.003 C 157.167 109.078,157.230 109.164,157.308 109.194 C 157.386 109.225,157.776 109.775,158.176 110.417 C 158.575 111.058,158.950 111.621,159.009 111.667 C 159.068 111.712,159.327 112.086,159.584 112.496 C 159.842 112.907,160.153 113.343,160.276 113.467 C 160.399 113.590,160.500 113.798,160.500 113.929 C 160.500 114.060,160.575 114.167,160.667 114.167 C 160.758 114.167,160.833 114.273,160.833 114.403 C 160.833 114.533,160.890 114.664,160.958 114.694 C 161.140 114.775,162.167 116.314,162.167 116.505 C 162.167 116.594,162.228 116.667,162.303 116.667 C 162.377 116.667,162.607 116.965,162.812 117.331 C 163.017 117.696,163.277 118.089,163.389 118.206 C 163.502 118.322,163.922 118.941,164.324 119.581 C 164.726 120.221,165.155 120.845,165.277 120.968 C 165.400 121.090,165.500 121.259,165.500 121.343 C 165.500 121.427,165.608 121.628,165.740 121.790 C 166.214 122.369,168.833 126.373,168.833 126.518 C 168.833 126.600,168.908 126.667,169.000 126.667 C 169.092 126.667,169.167 126.773,169.167 126.903 C 169.167 127.033,169.223 127.164,169.292 127.194 C 169.432 127.257,170.500 128.793,170.500 128.933 C 170.500 128.983,170.612 129.136,170.750 129.274 C 170.969 129.493,171.000 131.772,171.000 147.762 L 171.000 166.000 156.083 166.000 L 141.165 166.000 141.208 189.042 L 141.250 212.083 199.874 212.125 L 258.498 212.167 258.541 189.084 L 258.583 166.000 243.708 166.000 L 228.833 166.000 228.833 147.753 L 228.833 129.506 229.458 128.566 C 229.802 128.049,230.402 127.129,230.793 126.521 C 231.183 125.914,231.596 125.304,231.711 125.167 C 231.827 125.029,232.250 124.392,232.652 123.750 C 233.055 123.108,233.431 122.546,233.489 122.500 C 233.547 122.454,233.852 122.004,234.167 121.500 C 234.481 120.996,234.786 120.546,234.844 120.500 C 234.902 120.454,235.276 119.892,235.676 119.250 C 236.075 118.608,236.450 118.046,236.509 118.000 C 236.568 117.954,236.943 117.392,237.342 116.750 C 237.742 116.108,238.117 115.546,238.176 115.500 C 238.235 115.454,238.610 114.892,239.009 114.250 C 239.408 113.608,239.784 113.046,239.843 113.000 C 239.903 112.954,240.348 112.279,240.833 111.500 C 241.318 110.721,241.763 110.046,241.821 110.000 C 241.880 109.954,242.186 109.504,242.502 109.000 C 242.819 108.496,243.135 108.058,243.205 108.028 C 243.276 107.997,243.333 107.866,243.333 107.736 C 243.333 107.606,243.390 107.499,243.458 107.498 C 243.527 107.496,243.846 107.047,244.167 106.500 C 244.487 105.953,244.806 105.504,244.875 105.502 C 244.944 105.501,245.000 105.394,245.000 105.264 C 245.000 105.134,245.058 105.003,245.128 104.972 C 245.198 104.942,245.515 104.504,245.831 104.000 C 246.147 103.496,246.453 103.046,246.511 103.000 C 246.569 102.954,246.943 102.392,247.342 101.750 C 247.742 101.108,248.117 100.546,248.176 100.500 C 248.235 100.454,248.610 99.892,249.009 99.250 C 249.408 98.608,249.783 98.046,249.842 98.000 C 249.901 97.954,250.273 97.392,250.669 96.750 C 251.065 96.108,251.514 95.433,251.667 95.250 C 251.819 95.067,252.268 94.392,252.664 93.750 C 253.060 93.108,253.431 92.546,253.489 92.500 C 253.547 92.454,253.852 92.004,254.167 91.500 C 254.481 90.996,254.786 90.546,254.844 90.500 C 254.902 90.454,255.276 89.892,255.676 89.250 C 256.075 88.608,256.450 88.046,256.509 88.000 C 256.568 87.954,256.943 87.392,257.342 86.750 C 257.742 86.108,258.117 85.546,258.176 85.500 C 258.235 85.454,258.610 84.892,259.009 84.250 C 259.408 83.608,259.783 83.046,259.842 83.000 C 259.901 82.954,260.273 82.392,260.669 81.750 C 261.065 81.108,261.514 80.433,261.667 80.250 C 261.819 80.067,262.268 79.392,262.664 78.750 C 263.060 78.108,263.431 77.546,263.489 77.500 C 263.547 77.454,263.852 77.004,264.167 76.500 C 264.481 75.996,264.786 75.546,264.844 75.500 C 264.902 75.454,265.276 74.892,265.676 74.250 C 266.075 73.608,266.450 73.046,266.509 73.000 C 266.568 72.954,266.943 72.392,267.342 71.750 C 267.742 71.108,268.117 70.546,268.176 70.500 C 268.235 70.454,268.610 69.892,269.009 69.250 C 269.408 68.608,269.783 68.046,269.842 68.000 C 269.901 67.954,270.279 67.392,270.681 66.750 C 271.083 66.108,271.507 65.471,271.622 65.333 C 271.820 65.098,272.362 64.271,273.917 61.838 C 274.283 61.264,274.665 60.709,274.764 60.603 C 274.864 60.498,275.273 59.888,275.673 59.248 C 276.074 58.607,276.451 58.046,276.512 58.000 C 276.573 57.954,276.864 57.523,277.159 57.042 L 277.695 56.167 289.431 56.167 L 301.167 56.167 301.167 34.583 L 301.167 13.000 257.833 13.000 L 214.500 13.000 214.500 34.583 L 214.500 56.167 219.747 56.167 L 224.993 56.167 224.705 56.657 C 223.988 57.876,222.419 60.255,222.299 60.306 C 222.226 60.336,222.167 60.462,222.167 60.585 C 222.167 60.709,222.064 60.912,221.939 61.038 C 221.813 61.163,221.128 62.200,220.415 63.341 C 219.702 64.483,219.070 65.454,219.010 65.500 C 218.951 65.546,218.458 66.296,217.917 67.167 C 217.375 68.037,216.886 68.787,216.831 68.833 C 216.775 68.879,216.437 69.404,216.078 70.000 C 215.720 70.596,215.121 71.533,214.747 72.083 C 214.373 72.633,213.775 73.571,213.419 74.167 C 213.062 74.762,212.720 75.287,212.659 75.333 C 212.598 75.379,212.152 76.051,211.668 76.827 C 211.183 77.602,210.685 78.339,210.560 78.464 C 210.435 78.588,210.333 78.791,210.333 78.915 C 210.333 79.038,210.269 79.164,210.191 79.194 C 210.113 79.225,209.535 80.075,208.906 81.083 C 208.278 82.092,207.704 82.942,207.632 82.972 C 207.559 83.003,207.500 83.089,207.500 83.163 C 207.500 83.238,207.064 83.963,206.531 84.774 C 205.998 85.586,205.252 86.737,204.873 87.333 C 204.494 87.929,204.105 88.507,204.009 88.618 C 203.912 88.729,203.833 88.892,203.833 88.981 C 203.833 89.070,203.732 89.244,203.608 89.368 C 203.484 89.492,202.868 90.416,202.238 91.422 C 201.609 92.427,200.961 93.394,200.799 93.571 C 200.637 93.748,200.460 94.029,200.407 94.196 C 200.290 94.565,200.070 94.590,199.939 94.248 C 199.886 94.109,199.514 93.491,199.114 92.873 C 198.713 92.255,198.003 91.150,197.536 90.417 C 197.069 89.683,196.623 89.008,196.546 88.917 C 196.469 88.825,195.891 87.927,195.262 86.922 C 194.632 85.916,194.016 84.992,193.892 84.868 C 193.768 84.744,193.667 84.542,193.667 84.419 C 193.667 84.295,193.603 84.169,193.525 84.139 C 193.446 84.108,192.869 83.258,192.242 82.250 C 191.614 81.242,191.056 80.379,191.001 80.333 C 190.946 80.287,190.380 79.425,189.743 78.417 C 188.100 75.816,187.536 74.941,187.378 74.750 C 187.302 74.658,186.725 73.758,186.095 72.750 C 185.466 71.742,184.902 70.879,184.842 70.833 C 184.782 70.787,184.219 69.925,183.592 68.917 C 182.964 67.908,182.404 67.046,182.347 67.000 C 182.290 66.954,181.610 65.904,180.837 64.667 C 180.063 63.429,179.123 61.967,178.747 61.417 C 178.372 60.867,177.621 59.704,177.079 58.833 C 176.538 57.962,176.036 57.225,175.964 57.194 C 175.892 57.164,175.833 57.065,175.833 56.974 C 175.833 56.884,175.707 56.684,175.553 56.530 C 175.291 56.268,175.595 56.247,180.303 56.206 L 185.333 56.162 185.333 34.682 C 185.333 15.249,185.308 13.193,185.070 13.101 C 184.636 12.935,98.696 12.984,98.594 13.150 M180.167 34.665 L 180.167 51.163 173.159 51.207 L 166.152 51.250 167.728 53.667 C 169.349 56.152,169.782 56.819,173.833 63.083 C 175.137 65.100,176.718 67.537,177.346 68.500 C 177.973 69.462,179.235 71.412,180.149 72.833 C 181.063 74.254,182.521 76.504,183.389 77.833 C 184.257 79.162,186.296 82.313,187.921 84.833 C 189.546 87.354,191.387 90.204,192.013 91.167 C 195.612 96.699,197.627 99.812,198.782 101.624 C 199.498 102.746,200.125 103.664,200.175 103.665 C 200.225 103.666,200.863 102.750,201.592 101.630 C 203.854 98.154,205.177 96.115,207.250 92.911 C 208.350 91.210,209.700 89.126,210.250 88.280 C 210.800 87.434,211.903 85.731,212.701 84.496 C 216.487 78.635,218.253 75.904,220.272 72.792 C 221.476 70.935,223.382 67.992,224.507 66.250 C 225.632 64.508,227.017 62.371,227.583 61.500 C 228.150 60.629,229.460 58.604,230.495 57.000 C 231.529 55.396,232.779 53.478,233.271 52.738 C 233.764 51.999,234.167 51.343,234.167 51.280 C 234.167 51.218,230.867 51.167,226.833 51.167 L 219.500 51.167 219.500 34.667 L 219.500 18.167 257.834 18.167 L 296.168 18.167 296.126 34.625 L 296.083 51.083 285.558 51.126 L 275.032 51.169 249.349 89.695 L 223.665 128.220 223.708 149.568 L 223.750 170.917 238.625 170.959 L 253.500 171.002 253.500 189.001 L 253.500 207.000 199.875 207.000 L 146.250 207.000 146.263 189.042 L 146.276 171.083 161.138 171.041 L 176.000 170.998 176.000 149.515 L 176.000 128.032 150.377 89.599 L 124.754 51.167 114.211 51.167 L 103.667 51.167 103.665 44.958 C 103.665 41.544,103.615 34.119,103.556 28.458 L 103.447 18.167 141.807 18.167 L 180.167 18.167 180.167 34.665 M108.000 27.042 C 108.000 29.448,108.050 34.848,108.111 39.042 L 108.221 46.667 117.661 46.667 L 127.101 46.667 153.801 86.718 L 180.500 126.768 180.500 151.134 L 180.500 175.500 165.582 175.500 L 150.665 175.500 150.707 189.042 L 150.750 202.583 199.875 202.625 L 249.000 202.667 249.000 189.084 L 249.000 175.500 234.167 175.500 L 219.333 175.500 219.333 151.083 L 219.333 126.666 246.003 86.666 L 272.672 46.667 282.170 46.667 L 291.667 46.667 291.667 34.667 L 291.667 22.667 257.833 22.667 L 224.000 22.667 224.000 34.667 L 224.000 46.667 233.184 46.667 C 241.128 46.667,242.356 46.699,242.277 46.908 C 242.170 47.186,239.913 50.710,235.333 57.750 C 234.085 59.668,232.064 62.790,228.560 68.211 C 227.540 69.791,224.174 74.983,221.081 79.750 C 217.988 84.517,215.050 89.054,214.552 89.833 C 214.053 90.612,212.792 92.563,211.750 94.167 C 209.536 97.575,207.489 100.741,207.244 101.138 C 207.149 101.291,206.631 102.092,206.092 102.917 C 205.133 104.386,203.721 106.561,201.445 110.076 C 200.097 112.159,200.271 112.114,199.309 110.620 C 198.883 109.958,197.796 108.277,196.893 106.883 C 195.989 105.490,194.463 103.133,193.500 101.646 C 192.537 100.160,191.075 97.906,190.250 96.638 C 189.425 95.371,188.327 93.677,187.810 92.875 C 186.460 90.781,184.445 87.668,183.252 85.833 C 182.686 84.962,181.884 83.725,181.471 83.083 C 179.351 79.795,176.960 76.100,174.083 71.667 C 169.337 64.353,167.611 61.692,167.333 61.257 C 167.017 60.761,165.178 57.917,162.748 54.167 C 159.355 48.927,158.084 46.946,158.028 46.805 C 157.997 46.729,161.953 46.667,166.819 46.667 L 175.667 46.667 175.667 34.667 L 175.667 22.667 141.833 22.667 L 108.000 22.667 108.000 27.042 " stroke="none" fill="#04346c" fill-rule="evenodd"></path></g></svg>